<svg viewBox="0 0 32 32" fill="none" xmlns="http://www.w3.org/2000/svg" id="Shopping-Cart-Flat--Streamline-Fluent-Emoji" height="32" width="32">
  <desc>
    Shopping Cart Flat Streamline Emoji: https://streamlinehq.com
  </desc>
  <path d="M7.17 21.7566 22.94 23l1.0424 -4h0.5358c1.3714 0 2.4943 1.3403 2.4943 2.8852V22c0 1.6075 -1.2036 3 -2.6346 3H3c-0.54656 0 -1 0.382 -1 0.9562C2 26.5303 2.44718 27 2.99374 27H24.4188C26.943 27 29 24.7557 29 22v-0.1148C29 19.1921 26.9926 17 24.5182 17h-0.0147l0.0031 -0.0116c0.2212 -0.0487 0.3934 -0.2446 0.3934 -0.4692v-0.0384c0 -0.1438 -0.0656 -0.2711 -0.1678 -0.3585L27.37 6H5.2C3.44 6 2 7.43242 2 9.25278l0.52 8.49502c0.15 2.5167 2.52 3.8397 4.65 4.0088ZM21.6161 16H20v-4h2.6046l-0.9885 4Zm1.2357 -5H20V8.00704l1.95 0.00232c0.84 0 1.45 0.77589 1.25 1.58163L22.8518 11ZM19 8.00586V11h-4.38V8.00065l4.38 0.00521Zm-5.38 -0.0064V11H9.02002V7.994l4.59998 0.00546Zm-5.59998 -0.00665V11H4.11139L4 9.1931c0 -0.66648 0.54 -1.20363 1.21 -1.20363l2.81002 0.00334ZM4.17303 12h3.84699v4H4.41961l-0.24658 -4Zm0.30823 5h3.53876v2.8306L7.34 19.7771c-1.34 -0.1095 -2.74 -0.8754 -2.82 -2.1487L4.48126 17Zm4.53876 2.9094V17H13.62v3.2716l-4.59998 -0.3622Zm5.59998 0.441V17H19v3.62c0 0.0257 0.002 0.051 0.0058 0.0757l-4.3858 -0.3453Zm5.38 0.2498V17h1.3689l-0.6789 2.7472c-0.0942 0.3872 -0.3539 0.692 -0.69 0.853ZM14.62 12H19v4h-4.38v-4Zm-5.59998 0H13.62v4H9.02002v-4Z" fill="#9b9b9b" stroke-width="1"></path>
  <path d="M22.8035 23.9707c-0.5616 -0.1317 -0.9112 -0.6889 -0.7735 -1.2259l4.8845 -18.97648c0.1377 -0.53698 0.7205 -0.87132 1.282 -0.73961 0.5616 0.13171 0.9112 0.68895 0.7735 1.22592L24.0855 23.2311c-0.1377 0.5471 -0.7099 0.8713 -1.282 0.7396Z" fill="#bebebe" stroke-width="1"></path>
  <path d="M27 5h2c0.55 0 1 -0.45 1 -1s-0.45 -1 -1 -1h-2c-0.55 0 -1 0.45 -1 1s0.45 1 1 1Z" fill="#0084ce" stroke-width="1"></path>
  <path d="M5.5 30c0.82843 0 1.5 -0.6716 1.5 -1.5S6.32843 27 5.5 27 4 27.6716 4 28.5 4.67157 30 5.5 30Z" fill="#0084ce" stroke-width="1"></path>
  <path d="M23.5 30c0.8284 0 1.5 -0.6716 1.5 -1.5s-0.6716 -1.5 -1.5 -1.5 -1.5 0.6716 -1.5 1.5 0.6716 1.5 1.5 1.5Z" fill="#0084ce" stroke-width="1"></path>
</svg>